# xmcd CD database file
#
# Track frame offsets:
#	150
#	25660
#	56619
#	83942
#	125606
#	146888
#	179749
#	203958
#	226470
#	236699
#	253395
#
# Disc length: 3687 seconds
#
# Revision: 0
# Processed by: cddbd v1.5.1PL2 Copyright (c) Steve Scherf et al.
# Submitted via: CDex 1.51
#
DISCID=a70e650b
DTITLE=Michael Felberbaum - Sharp Water
DYEAR=2004
DGENRE=Jazz
TTITLE0=Raggy
TTITLE1=Open Closer
TTITLE2=Dog
TTITLE3=Snakes
TTITLE4=Eel Feel
TTITLE5=3 Elements
TTITLE6=Tippin' the Hat
TTITLE7=What Is It With You Pippo?
TTITLE8=Ports
TTITLE9=Get Set
TTITLE10=Booty
EXTD=YEAR: 2004
EXTT0=
EXTT1=
EXTT2=
EXTT3=
EXTT4=
EXTT5=
EXTT6=
EXTT7=
EXTT8=
EXTT9=
EXTT10=
PLAYORDER=
